HIERARCHY
ROOT Hips
{
	OFFSET 0.000000 0.000000 0.000000
	CHANNELS 6 Xposition Yposition Zposition Zrotation Yrotation Xrotation 
	JOINT LHipJoint
	{
		OFFSET 0.000000 0.000000 0.000000
		CHANNELS 3 Zrotation Yrotation Xrotation
		JOINT LeftUpLeg
		{
			OFFSET 1.363060 -1.794630 0.839290
			CHANNELS 3 Zrotation Yrotation Xrotation
			JOINT LeftLeg
			{
				OFFSET 2.448110 -6.726130 0.000000
				CHANNELS 3 Zrotation Yrotation Xrotation
				JOINT LeftFoot
				{
					OFFSET 2.562200 -7.039590 0.000000
					CHANNELS 3 Zrotation Yrotation Xrotation
					JOINT LeftToeBase
					{
						OFFSET 0.157640 -0.433110 2.322550
						CHANNELS 3 Zrotation Yrotation Xrotation
						End Site
						{
							OFFSET 0.000000 0.000000 0.000000
						}
					}
				}
			}
		}
	}
	JOINT RHipJoint
	{
		OFFSET 0.000000 0.000000 0.000000
		CHANNELS 3 Zrotation Yrotation Xrotation
		JOINT RightUpLeg
		{
			OFFSET -1.305520 -1.794630 0.839290
			CHANNELS 3 Zrotation Yrotation Xrotation
			JOINT RightLeg
			{
				OFFSET -2.542530 -6.985550 0.000000
				CHANNELS 3 Zrotation Yrotation Xrotation
				JOINT RightFoot
				{
					OFFSET -2.568260 -7.056230 0.000000
					CHANNELS 3 Zrotation Yrotation Xrotation
					JOINT RightToeBase
					{
						OFFSET -0.164730 -0.452590 2.363150
						CHANNELS 3 Zrotation Yrotation Xrotation
						End Site
						{
							OFFSET 0.000000 0.000000 0.000000
						}
					}
				}
			}
		}
	}
	JOINT LowerBack
	{
		OFFSET 0.000000 0.000000 0.000000
		CHANNELS 3 Zrotation Yrotation Xrotation
		JOINT Spine
		{
			OFFSET 0.028270 2.035590 -0.193380
			CHANNELS 3 Zrotation Yrotation Xrotation
			JOINT Spine1
			{
				OFFSET 0.056720 2.048850 -0.042750
				CHANNELS 3 Zrotation Yrotation Xrotation
				JOINT Neck
				{
					OFFSET 0.000000 0.000000 0.000000
					CHANNELS 3 Zrotation Yrotation Xrotation
					JOINT Neck1
					{
						OFFSET -0.054170 1.746240 0.172020
						CHANNELS 3 Zrotation Yrotation Xrotation
						JOINT Head
						{
							OFFSET 0.104070 1.761360 -0.123970
							CHANNELS 3 Zrotation Yrotation Xrotation
							End Site
							{
								OFFSET 0.000000 0.000000 0.000000
							}
						}
					}
				}
				JOINT LeftShoulder
				{
					OFFSET 0.000000 0.000000 0.000000
					CHANNELS 3 Zrotation Yrotation Xrotation
					JOINT LeftArm
					{
						OFFSET 3.362410 1.200890 -0.311210
						CHANNELS 3 Zrotation Yrotation Xrotation
						JOINT LeftForeArm
						{
							OFFSET 4.983000 -0.000000 -0.000000
							CHANNELS 3 Zrotation Yrotation Xrotation
							JOINT LeftHand
							{
								OFFSET 3.483560 -0.000000 -0.000000
								CHANNELS 3 Zrotation Yrotation Xrotation
								JOINT LeftFingerBase
								{
									OFFSET 0.000000 0.000000 0.000000
									CHANNELS 3 Zrotation Yrotation Xrotation
									JOINT LeftHandIndex1
									{
										OFFSET 0.715260 -0.000000 -0.000000
										CHANNELS 3 Zrotation Yrotation Xrotation
										End Site
										{
											OFFSET 0.000000 0.000000 0.000000
										}
									}
								}
								JOINT LThumb
								{
									OFFSET 0.000000 0.000000 0.000000
									CHANNELS 3 Zrotation Yrotation Xrotation
									End Site
									{
										OFFSET 0.000000 0.000000 0.000000
									}
								}
							}
						}
					}
				}
				JOINT RightShoulder
				{
					OFFSET 0.000000 0.000000 0.000000
					CHANNELS 3 Zrotation Yrotation Xrotation
					JOINT RightArm
					{
						OFFSET -3.136600 1.374050 -0.404650
						CHANNELS 3 Zrotation Yrotation Xrotation
						JOINT RightForeArm
						{
							OFFSET -5.241900 -0.000000 -0.000000
							CHANNELS 3 Zrotation Yrotation Xrotation
							JOINT RightHand
							{
								OFFSET -3.444170 -0.000000 -0.000000
								CHANNELS 3 Zrotation Yrotation Xrotation
								JOINT RightFingerBase
								{
									OFFSET 0.000000 0.000000 0.000000
									CHANNELS 3 Zrotation Yrotation Xrotation
									JOINT RightHandIndex1
									{
										OFFSET -0.622530 -0.000000 -0.000000
										CHANNELS 3 Zrotation Yrotation Xrotation
										End Site
										{
											OFFSET 0.000000 0.000000 0.000000
										}
									}
								}
								JOINT RThumb
								{
									OFFSET 0.000000 0.000000 0.000000
									CHANNELS 3 Zrotation Yrotation Xrotation
									End Site
									{
										OFFSET 0.000000 0.000000 0.000000
									}
								}
							}
						}
					}
				}
			}
		}
	}
}
MOTION
Frames: 4
Frame Time: 0.008333
0.525851 17.497254 35.967534 -175.176240 -0.258062 -153.124372 3.182844 0.067515 -0.299997 -24.502434 18.955543 -35.956885 11.013308 17.422181 52.572574 -11.157111 54.751498 24.485188 1.385200 7.446900 21.046300 -5.221052 -0.356983 0.621403 35.471336 16.212279 -38.743067 -2.106654 -14.820666 38.316855 1.624258 -18.347803 -35.809906 -3.579700 -11.579100 34.258700 4.833361 2.154127 -19.136626 1.225139 3.528679 -7.346300 -0.144842 2.739012 -0.892155 -2.690394 -0.517865 -17.820772 5.598260 -3.040900 16.315534 0.131800 -2.115800 14.295300 -7.719605 -9.248305 1.888306 -77.112358 22.580064 12.292658 11.231905 -17.444222 -2.659181 -4.188000 0.740744 -1.944435 -34.026543 18.940119 -10.498300 -7.125000 0.000000 0.000000 -49.446200 42.835600 3.672200 8.552498 10.453103 2.392830 73.792471 -16.854780 29.472797 -9.876309 13.693755 -1.773743 0.888855 2.421093 -2.597885 22.253013 9.502690 2.714100 7.125000 0.000000 0.000000 33.017500 -22.051500 22.102000 
0.523831 17.493320 35.959773 -175.080263 -0.330252 -153.146089 3.170713 0.074388 -0.305215 -24.433896 19.071348 -35.975001 11.036395 17.422629 52.540332 -10.889659 54.686805 25.104306 1.249000 7.085800 19.969800 -5.210587 -0.358200 0.616300 35.636490 16.040690 -38.636765 -2.093862 -14.809615 38.319230 1.375437 -17.964800 -36.368003 -3.769100 -11.846600 35.191600 4.958942 2.182006 -19.191992 1.232441 3.534649 -7.329532 -0.161786 2.738116 -0.823590 -2.720516 -0.520469 -17.745023 5.597426 -3.066616 16.372762 0.140100 -2.139300 14.305800 -7.717641 -9.235915 1.887295 -77.118148 22.503666 12.103294 11.193965 -17.399018 -2.651178 -4.188498 0.761967 -1.965919 -33.978729 19.094382 -10.548400 -7.125000 0.000000 0.000000 -49.510600 42.947500 3.485900 8.551669 10.437635 2.396981 73.775510 -16.906395 29.510471 -9.892794 13.713123 -1.767309 0.875737 2.411693 -2.473860 22.060443 9.538730 2.707200 7.125000 0.000000 0.000000 32.908200 -22.030000 22.014900 
0.523937 17.496403 35.951267 -175.123727 -0.338385 -153.171556 3.192204 0.071302 -0.294922 -24.491971 19.085945 -35.961779 10.966938 17.390638 52.585885 -11.815580 55.071503 23.091578 1.503000 7.743500 21.937500 -5.210712 -0.351073 0.611203 35.526864 16.134575 -38.563251 -2.079701 -14.803292 38.301618 1.348120 -18.119225 -36.713698 -3.887200 -12.008700 35.762800 4.925941 2.224396 -19.206588 1.208917 3.607422 -7.323461 -0.203508 2.771228 -0.827275 -2.751751 -0.569733 -17.623128 5.586790 -3.159618 16.394282 0.140100 -2.189900 14.285100 -7.726765 -9.231979 1.891182 -77.025647 22.467532 11.975405 11.118910 -17.302612 -2.636927 -4.196155 0.765653 -1.878068 -34.092889 19.066288 -10.581000 -7.125000 0.000000 0.000000 -49.558400 42.913700 3.551200 8.539395 10.432461 2.392820 73.837266 -16.982287 29.558361 -9.865466 13.688638 -1.759763 0.868732 2.411286 -2.527199 22.002555 9.564763 2.710300 7.125000 0.000000 0.000000 32.871100 -22.010900 21.996700 
0.523087 17.482263 35.948184 -175.153673 -0.391489 -153.191421 3.227950 0.064704 -0.288045 -24.509210 19.012957 -35.986440 10.905374 17.374045 52.747553 -12.895112 55.373075 20.563257 1.826000 8.493800 24.224400 -5.221793 -0.346738 0.604104 35.466962 16.257720 -38.472494 -2.060268 -14.776005 38.214694 1.305273 -17.943987 -36.655688 -3.851600 -11.960200 35.591400 4.894902 2.221242 -19.176163 1.216920 3.602318 -7.314315 -0.139911 2.771782 -0.812243 -2.886402 -0.582498 -17.603037 5.600523 -3.157950 16.445009 0.181900 -2.213000 14.318700 -7.724343 -9.233671 1.883165 -77.106604 22.399946 11.730975 11.070227 -17.239350 -2.621779 -4.190699 0.773437 -1.740289 -34.024555 19.022254 -10.529800 -7.125000 0.000000 0.000000 -49.487600 42.888200 3.586100 8.535175 10.430175 2.397992 73.792971 -16.962024 29.342293 -9.829182 13.658187 -1.765251 0.907686 2.409510 -2.168551 22.242748 9.492867 2.710900 7.125000 0.000000 0.000000 33.012500 -22.056600 22.092100 
